<svg width="47" height="30" viewBox="0 0 47 30" fill="none" xmlns="http://www.w3.org/2000/svg">
<mask id="path-1-inside-1_1_63" fill="white">
<path fill-rule="evenodd" clip-rule="evenodd" d="M10.875 3H36.125C40.4742 3 44 6.52576 44 10.875C44 11.1165 43.9891 11.3554 43.9679 11.5914C41.989 9.53182 39.2067 8.25 36.125 8.25H10.875C7.7933 8.25 5.01099 9.53182 3.03215 11.5914C3.01087 11.3554 3 11.1165 3 10.875C3 6.52576 6.52576 3 10.875 3ZM0.809603 15C0.287738 13.7279 0 12.3351 0 10.875C0 4.8689 4.8689 0 10.875 0H36.125C42.1311 0 47 4.8689 47 10.875C47 12.3351 46.7123 13.7279 46.1904 15C46.7123 16.2721 47 17.6649 47 19.125C47 25.1311 42.1311 30 36.125 30H10.875C4.8689 30 0 25.1311 0 19.125C0 17.6649 0.287738 16.2721 0.809603 15ZM43.9679 18.4086C43.9891 18.6446 44 18.8835 44 19.125C44 23.4742 40.4742 27 36.125 27H10.875C6.52576 27 3 23.4742 3 19.125C3 18.8835 3.01087 18.6446 3.03215 18.4086C5.01099 20.4682 7.7933 21.75 10.875 21.75H36.125C39.2067 21.75 41.989 20.4682 43.9679 18.4086Z"/>
</mask>
<path fill-rule="evenodd" clip-rule="evenodd" d="M10.875 3H36.125C40.4742 3 44 6.52576 44 10.875C44 11.1165 43.9891 11.3554 43.9679 11.5914C41.989 9.53182 39.2067 8.25 36.125 8.25H10.875C7.7933 8.25 5.01099 9.53182 3.03215 11.5914C3.01087 11.3554 3 11.1165 3 10.875C3 6.52576 6.52576 3 10.875 3ZM0.809603 15C0.287738 13.7279 0 12.3351 0 10.875C0 4.8689 4.8689 0 10.875 0H36.125C42.1311 0 47 4.8689 47 10.875C47 12.3351 46.7123 13.7279 46.1904 15C46.7123 16.2721 47 17.6649 47 19.125C47 25.1311 42.1311 30 36.125 30H10.875C4.8689 30 0 25.1311 0 19.125C0 17.6649 0.287738 16.2721 0.809603 15ZM43.9679 18.4086C43.9891 18.6446 44 18.8835 44 19.125C44 23.4742 40.4742 27 36.125 27H10.875C6.52576 27 3 23.4742 3 19.125C3 18.8835 3.01087 18.6446 3.03215 18.4086C5.01099 20.4682 7.7933 21.75 10.875 21.75H36.125C39.2067 21.75 41.989 20.4682 43.9679 18.4086Z" fill="#0D0B0B"/>
<path d="M43.9679 11.5914L41.8046 13.6699L46.3647 18.416L46.9557 11.8608L43.9679 11.5914ZM3.03215 11.5914L0.0442691 11.8608L0.635374 18.4159L5.19543 13.6699L3.03215 11.5914ZM0.809603 15L3.58511 16.1387L4.05225 15L3.58511 13.8613L0.809603 15ZM46.1904 15L43.4149 13.8613L42.9477 15L43.4149 16.1387L46.1904 15ZM43.9679 18.4086L46.9557 18.1392L46.3647 11.584L41.8046 16.3301L43.9679 18.4086ZM3.03215 18.4086L5.19543 16.3301L0.635375 11.5841L0.0442698 18.1392L3.03215 18.4086ZM36.125 0H10.875V6H36.125V0ZM47 10.875C47 4.8689 42.1311 0 36.125 0V6C38.8174 6 41 8.18261 41 10.875H47ZM46.9557 11.8608C46.9851 11.5354 47 11.2066 47 10.875H41C41 11.0264 40.9932 11.1754 40.98 11.322L46.9557 11.8608ZM36.125 11.25C38.357 11.25 40.3679 12.1746 41.8046 13.6699L46.1311 9.51287C43.6101 6.889 40.0564 5.25 36.125 5.25V11.25ZM10.875 11.25H36.125V5.25H10.875V11.25ZM5.19543 13.6699C6.63208 12.1746 8.643 11.25 10.875 11.25V5.25C6.94361 5.25 3.38991 6.889 0.868863 9.51287L5.19543 13.6699ZM0 10.875C0 11.2066 0.0149258 11.5354 0.0442691 11.8608L6.02002 11.3219C6.00681 11.1755 6 11.0264 6 10.875H0ZM10.875 0C4.8689 0 0 4.8689 0 10.875H6C6 8.18261 8.18261 6 10.875 6V0ZM-3 10.875C-3 12.7323 -2.63344 14.5115 -1.96591 16.1387L3.58511 13.8613C3.20891 12.9444 3 11.9378 3 10.875H-3ZM10.875 -3C3.21205 -3 -3 3.21205 -3 10.875H3C3 6.52576 6.52576 3 10.875 3V-3ZM36.125 -3H10.875V3H36.125V-3ZM50 10.875C50 3.21205 43.788 -3 36.125 -3V3C40.4742 3 44 6.52576 44 10.875H50ZM48.9659 16.1387C49.6334 14.5115 50 12.7323 50 10.875H44C44 11.9378 43.7911 12.9443 43.4149 13.8613L48.9659 16.1387ZM50 19.125C50 17.2677 49.6334 15.4885 48.9659 13.8613L43.4149 16.1387C43.7911 17.0557 44 18.0622 44 19.125H50ZM36.125 33C43.788 33 50 26.788 50 19.125H44C44 23.4742 40.4742 27 36.125 27V33ZM10.875 33H36.125V27H10.875V33ZM-3 19.125C-3 26.7879 3.21205 33 10.875 33V27C6.52576 27 3 23.4742 3 19.125H-3ZM-1.96591 13.8613C-2.63344 15.4885 -3 17.2677 -3 19.125H3C3 18.0622 3.20891 17.0557 3.58511 16.1387L-1.96591 13.8613ZM47 19.125C47 18.7934 46.9851 18.4646 46.9557 18.1392L40.98 18.678C40.9932 18.8246 41 18.9736 41 19.125H47ZM36.125 30C42.1311 30 47 25.1311 47 19.125H41C41 21.8174 38.8174 24 36.125 24V30ZM10.875 30H36.125V24H10.875V30ZM0 19.125C0 25.1311 4.8689 30 10.875 30V24C8.18261 24 6 21.8174 6 19.125H0ZM0.0442698 18.1392C0.0149272 18.4646 0 18.7934 0 19.125H6C6 18.9736 6.00681 18.8246 6.02002 18.6781L0.0442698 18.1392ZM10.875 18.75C8.643 18.75 6.63207 17.8254 5.19543 16.3301L0.868864 20.4871C3.38991 23.111 6.94361 24.75 10.875 24.75V18.75ZM36.125 18.75H10.875V24.75H36.125V18.75ZM41.8046 16.3301C40.3679 17.8254 38.357 18.75 36.125 18.75V24.75C40.0564 24.75 43.6101 23.111 46.1311 20.4871L41.8046 16.3301Z" fill="#0D0B0B" mask="url(#path-1-inside-1_1_63)"/>
</svg>
