<svg width="47" height="30" viewBox="0 0 47 30" fill="none" xmlns="http://www.w3.org/2000/svg">
<path fill-rule="evenodd" clip-rule="evenodd" d="M36.125 3H10.875C6.52576 3 3 6.52576 3 10.875C3 11.1165 3.01086 11.3554 3.03215 11.5914C5.01099 9.53183 7.7933 8.25 10.875 8.25H36.125C39.2067 8.25 41.989 9.53183 43.9679 11.5914C43.9891 11.3554 44 11.1165 44 10.875C44 6.52576 40.4742 3 36.125 3ZM0 10.875C0 12.3351 0.287735 13.7279 0.809601 15C0.287735 16.2721 0 17.6649 0 19.125C0 25.1311 4.8689 30 10.875 30H36.125C42.1311 30 47 25.1311 47 19.125C47 17.6649 46.7122 16.2721 46.1904 15C46.7122 13.7279 47 12.3351 47 10.875C47 4.8689 42.1311 0 36.125 0H10.875C4.8689 0 0 4.8689 0 10.875ZM44 19.125C44 18.8835 43.9891 18.6446 43.9679 18.4086C41.989 20.4682 39.2067 21.75 36.125 21.75H10.875C7.7933 21.75 5.01099 20.4682 3.03215 18.4086C3.01086 18.6446 3 18.8835 3 19.125C3 23.4742 6.52576 27 10.875 27H36.125C40.4742 27 44 23.4742 44 19.125Z" fill="url(#paint0_linear_6_67)"/>
<defs>
<linearGradient id="paint0_linear_6_67" x1="23.5" y1="0" x2="23.5" y2="30" gradientUnits="userSpaceOnUse">
<stop stop-color="#8000FF"/>
<stop offset="1" stop-color="#FF00D6"/>
</linearGradient>
</defs>
</svg>
